:SAMPLES-PER-SECOND 30
:FULLY-SPECIFIED
:DEGREES
427
root  -47.5653 38.4386 -1.14484 -30.3339 86.1956 -27.6447
RightUpLeg  -22.4497 -1.72876 3.41871
RightLeg  23.8717 -0.214405 -0.327086
RightFoot  2.21759 0.537952 -4.37747
RightToes  -6.40286e-010 0 -3.6325e-017
Spine  6.76177 -1.02561 9.3448
Spine1  6.66485 0.0008465 -0.911787
HEad  -17.1086 1.01894 -3.02413
LeftShoulder1  -0.494209 4.78152 -32.5323
LeftArm  -0.564702 5.2609 -45.318
LeftForeArm  36.1064 -9.31225 -9.26349
LeftHand  -0.0534877 7.3591 -0.745414
RightShoulder  -0.924621 -6.04808 29.758
RightArm  12.5393 -1.95912 45.7707
RightForeArm  21.6984 6.40464 6.71284
RightHand  0.0256907 4.38189 0.0954422
LeftUpLeg  11.2654 4.13747 1.47396
LeftLeg  33.3098 -4.59412 -2.88533
LeftFoot  -15.3295 -0.257291 -10.6583
LeftToes  1.32783e-010 1.73515e-011 1.59258e-011
428
root  -46.461 38.4285 -0.961628 -54.6331 86.3726 -52.3249
RightUpLeg  -21.8274 -1.84677 4.63461
RightLeg  25.8576 -1.21808 -0.877732
RightFoot  -0.443756 0.445689 -4.68172
RightToes  -6.40286e-010 0 -3.6325e-017
Spine  6.5876 -1.10676 11.3974
Spine1  6.42385 0.178293 -0.671524
HEad  -16.7959 0.410473 -3.24016
LeftShoulder1  -0.518617 4.84058 -32.648
LeftArm  -1.54545 6.25272 -45.2571
LeftForeArm  40.2027 -7.73779 -9.57653
LeftHand  -0.09607 8.2393 -1.91273
RightShoulder  -0.894147 -5.99051 29.3691
RightArm  12.5594 -0.644463 46.8197
RightForeArm  17.8351 7.36033 6.80118
RightHand  -0.107994 5.27411 -1.42236
LeftUpLeg  5.65027 2.27934 3.25856
LeftLeg  43.9295 -4.85484 -4.57355
LeftFoot  -5.93897 0.59624 -12.9464
LeftToes  1.32783e-010 1.73515e-011 1.59258e-011
429
root  -45.4027 38.4401 -0.823858 -70.9704 86.292 -68.5661
RightUpLeg  -20.5576 -2.37445 5.24105
RightLeg  27.4279 -1.65981 -1.18144
RightFoot  -3.08083 0.308354 -4.56161
RightToes  -6.40286e-010 0 -3.6325e-017
Spine  6.67374 -0.971999 13.3166
Spine1  6.68269 0.765618 -1.27965
HEad  -16.8885 -0.800831 -3.04499
LeftShoulder1  -0.448234 4.65747 -32.7026
LeftArm  -1.15057 6.96827 -45.1362
LeftForeArm  42.3028 -7.89829 -9.62378
LeftHand  -0.14951 8.51298 -3.65501
RightShoulder  -0.916907 -6.03361 29.6613
RightArm  14.0012 1.22049 47.0628
RightForeArm  16.3533 9.8226 6.82436
RightHand  0.0189029 3.20604 0.0614423
LeftUpLeg  0.0722232 0.656228 4.05604
LeftLeg  53.2135 -3.89713 -5.09389
LeftFoot  5.93372 1.57037 -10.5097
LeftToes  1.32783e-010 1.73515e-011 1.59258e-011
430
root  -44.4073 38.477 -0.69002 -83.96 86.0182 -81.2321
RightUpLeg  -18.7794 -2.98533 5.79713
RightLeg  28.2714 -1.99102 -1.41129
RightFoot  -5.24476 0.209674 -4.58774
RightToes  -6.40286e-010 0 -3.6325e-017
Spine  7.05464 -0.885342 14.9109
Spine1  6.9461 1.28226 -1.60253
HEad  -17.3273 -1.67463 -3.03821
LeftShoulder1  -0.494014 4.76248 -33.105
LeftArm  -0.308308 7.63693 -44.7796
LeftForeArm  40.6499 -9.05173 -9.43647
LeftHand  -0.130809 8.43784 -2.96669
RightShoulder  -0.866809 -5.92654 29.1823
RightArm  17.3449 3.18278 47.8398
RightForeArm  11.932 12.7977 6.81632
RightHand  -0.181833 4.81297 -2.39278
LeftUpLeg  -4.7693 -0.778044 4.7364
LeftLeg  60.0157 -2.79134 -4.69242
LeftFoot  9.9003 1.6719 -9.1767
LeftToes  1.32783e-010 1.73515e-011 1.59258e-011
431
root  -43.334 38.6591 -0.562014 -84.2287 86.4642 -81.1711
RightUpLeg  -16.3301 -3.50848 5.38094
RightLeg  27.8972 -1.50592 -1.11746
RightFoot  -6.98801 0.121038 -4.43413
RightToes  -6.40286e-010 0 -3.6325e-017
Spine  7.09134 -0.477435 15.2651
Spine1  7.08259 1.94788 -2.21871
HEad  -17.1988 -2.55302 -3.201
LeftShoulder1  -0.501292 4.78549 -32.9608
LeftArm  0.56289 8.83785 -44.7672
LeftForeArm  37.425 -10.4988 -9.01797
LeftHand  -0.0784117 8.09741 -1.46586
RightShoulder  -0.816981 -5.80277 28.922
RightArm  21.094 5.42968 48.4686
RightForeArm  8.50729 15.1277 6.55244
RightHand  -0.255803 5.51594 -3.03797
LeftUpLeg  -8.89937 -1.51851 4.47398
LeftLeg  63.9107 -2.24315 -4.37199
LeftFoot  6.47863 1.24937 -8.22471
LeftToes  1.32783e-010 1.73515e-011 1.59258e-011
432
root  -42.2424 38.8719 -0.442779 -73.196 87.0904 -69.8581
RightUpLeg  -13.7064 -3.64673 4.62561
RightLeg  27.1072 -0.967677 -0.812271
RightFoot  -8.39239 0.058951 -4.47459
RightToes  -6.40286e-010 0 -3.6325e-017
Spine  7.03559 0.0516531 15.1406
Spine1  7.13099 2.62047 -2.80818
HEad  -16.8193 -2.59172 -3.12929
LeftShoulder1  -0.531782 4.85591 -33.1825
LeftArm  3.15765 9.91274 -44.2682
LeftForeArm  32.0101 -12.6657 -8.45594
LeftHand  -0.0688034 8.58894 -0.727925
RightShoulder  -0.790289 -5.75839 28.4271
RightArm  24.3138 7.69374 49.3898
RightForeArm  7.05204 17.1254 6.06093
RightHand  -0.272891 5.74889 -3.1416
LeftUpLeg  -12.3231 -1.53017 3.85656
LeftLeg  64.4382 -1.9119 -3.73725
LeftFoot  5.78668 0.954585 -6.5713
LeftToes  1.32783e-010 1.73515e-011 1.59258e-011
433
root  -41.1481 39.0634 -0.331904 -54.9184 87.4993 -51.4284
RightUpLeg  -11.0448 -4.31394 3.76268
RightLeg  25.9694 0.229527 -0.220315
RightFoot  -9.85739 -0.00964911 -4.41944
RightToes  -6.40286e-010 0 -3.6325e-017
Spine  7.06137 0.453513 15.4243
Spine1  6.79908 3.34496 -4.45284
HEad  -16.3038 -1.67239 -3.42807
LeftShoulder1  -0.508638 4.81546 -32.6242
LeftArm  6.0416 11.0546 -44.1546
LeftForeArm  28.0896 -15.0143 -7.54379
LeftHand  -0.0404662 7.2724 -0.0996773
RightShoulder  -0.764068 -5.6912 28.2957
RightArm  26.3081 9.38752 50.3131
RightForeArm  7.14629 18.9944 5.38961
RightHand  -0.126341 5.33849 -1.68193
LeftUpLeg  -15.2587 -1.75364 3.02976
LeftLeg  62.342 -1.84371 -3.22545
LeftFoot  3.70852 0.678513 -5.27492
LeftToes  1.32783e-010 1.73515e-011 1.59258e-011
434
root  -40.0555 39.2293 -0.227165 -33.0089 87.6373 -29.2671
RightUpLeg  -8.27499 -4.95029 2.84594
RightLeg  24.7697 1.21371 0.148383
RightFoot  -11.0987 -0.0650371 -4.68216
RightToes  -6.40286e-010 0 -3.6325e-017
Spine  7.02835 0.9027 15.3566
Spine1  6.69517 3.96663 -5.70983
HEad  -16.3249 -2.18539 -3.21599
LeftShoulder1  -0.471654 4.73334 -32.2184
LeftArm  8.0663 11.5971 -44.138
LeftForeArm  25.4221 -16.7435 -6.70816
LeftHand  -0.0279547 7.62089 0.661154
RightShoulder  -0.775886 -5.7377 28.0879
RightArm  28.044 10.8955 50.9985
RightForeArm  5.01738 20.7891 4.96917
RightHand  -0.214343 5.71205 -2.56665
LeftUpLeg  -17.3585 -1.95175 2.22391
LeftLeg  57.7469 -2.31862 -3.44018
LeftFoot  1.16435 0.372469 -3.4873
LeftToes  1.32783e-010 1.73515e-011 1.59258e-011
435
root  -38.9692 39.3808 -0.121784 -16.5728 87.323 -12.739
RightUpLeg  -5.54476 -5.69059 2.0916
RightLeg  23.1884 2.26722 0.472815
RightFoot  -12.0551 -0.112759 -5.00241
RightToes  -6.40286e-010 0 -3.6325e-017
Spine  6.85939 1.21536 14.9349
Spine1  6.5136 4.17522 -6.29357
HEad  -16.1978 -1.80193 -3.66484
LeftShoulder1  -0.486989 4.76276 -32.5318
LeftArm  9.34291 11.6999 -43.7043
LeftForeArm  24.2202 -17.6714 -6.24227
LeftHand  -0.0250195 7.48075 0.643765
RightShoulder  -0.709196 -5.58222 27.4595
RightArm  28.6424 12.1235 51.9082
RightForeArm  4.53347 22.1817 4.75432
RightHand  -0.243128 5.47072 -2.91348
LeftUpLeg  -18.6976 -1.66839 1.77057
LeftLeg  50.6771 -2.89229 -3.35449
LeftFoot  -1.00252 0.306934 -3.34385
LeftToes  1.32783e-010 1.73515e-011 1.59258e-011
436
root  -37.8911 39.5015 -0.0257161 -4.16087 86.5974 -0.30423
RightUpLeg  -2.89098 -6.1224 1.3478
RightLeg  21.586 3.49611 0.750799
RightFoot  -12.9109 -0.157914 -5.19403
RightToes  -6.40286e-010 0 -3.6325e-017
Spine  6.75104 1.5671 14.5475
Spine1  6.2387 4.51879 -7.26152
HEad  -16.0545 -1.05705 -4.26382
LeftShoulder1  -0.439457 4.64995 -32.2047
LeftArm  9.64593 11.6882 -43.8089
LeftForeArm  23.5964 -17.934 -6.12009
LeftHand  0.00379672 8.48297 1.74343
RightShoulder  -0.752241 -5.67656 27.9826
RightArm  29.7785 13.564 52.0512
RightForeArm  3.84787 23.109 4.79059
RightHand  -0.228337 5.86334 -2.67457
LeftUpLeg  -19.0624 -0.475306 1.38211
LeftLeg  41.3055 -3.08098 -2.54213
LeftFoot  -2.14951 0.300807 -3.5812
LeftToes  1.32783e-010 1.73515e-011 1.59258e-011
437
root  -36.8084 39.5939 0.0612669 0.233887 86.4038 4.06096
RightUpLeg  -0.0282108 -6.89528 0.654513
RightLeg  19.5146 4.51039 1.01592
RightFoot  -13.7087 -0.192961 -4.85186
RightToes  -6.40286e-010 0 -3.6325e-017
Spine  6.13424 1.68637 13.6492
Spine1  6.60053 4.35805 -7.23281
HEad  -16.0505 -0.245961 -4.55486
LeftShoulder1  -0.472748 4.73261 -32.3312
LeftArm  8.55917 11.1137 -43.8428
LeftForeArm  24.5813 -17.2476 -6.43903
LeftHand  -0.0190897 7.36127 1.14715
RightShoulder  -0.726619 -5.62404 27.6138
RightArm  30.1077 14.5359 52.8087
RightForeArm  3.78834 23.6291 4.8574
RightHand  -0.28992 6.36835 -3.1991
LeftUpLeg  -18.6156 0.409055 0.98209
LeftLeg  30.014 -2.7556 -1.37942
LeftFoot  -1.59828 0.290039 -3.28036
LeftToes  1.32783e-010 1.73515e-011 1.59258e-011
438
root  -35.73 39.6643 0.139682 0.207321 86.1176 4.03844
RightUpLeg  3.06998 -7.24989 0.236331
RightLeg  16.9739 5.19451 1.11039
RightFoot  -14.193 -0.212214 -4.66442
RightToes  -6.40286e-010 0 -3.6325e-017
Spine  5.60758 1.74076 12.9657
Spine1  6.92635 4.2605 -7.50935
HEad  -16.1117 0.108684 -4.91453
LeftShoulder1  -0.487347 4.772 -32.2858
LeftArm  7.16624 10.6578 -44.1523
LeftForeArm  25.7466 -16.481 -6.7762
LeftHand  -0.0104029 8.35293 1.31048
RightShoulder  -0.689549 -5.52579 27.4279
RightArm  30.6081 14.8475 53.2216
RightForeArm  3.65887 23.8965 4.92171
RightHand  -0.308913 6.30596 -3.40321
LeftUpLeg  -17.4177 2.12493 0.741973
LeftLeg  17.8768 -2.26569 -0.520365
LeftFoot  -0.727549 0.377645 -4.02256
LeftToes  1.32783e-010 1.73515e-011 1.59258e-011
